<?xml version="1.0" encoding="utf-8"?>
<!-- Generator: Adobe Illustrator 28.0.0, SVG Export Plug-In . SVG Version: 6.00 Build 0)  -->
<svg version="1.1" xmlns="http://www.w3.org/2000/svg" xmlns:xlink="http://www.w3.org/1999/xlink" x="0px" y="0px"
	 viewBox="0 0 536 536" style="enable-background:new 0 0 536 536;" xml:space="preserve">
<style type="text/css">
	.st0{fill:#F80000;}
	.st1{fill:#0080FF;}
	.st2{fill:#008000;}
	.st3{display:none;}
	.st4{display:inline;fill:#0080FF;}
	.st5{display:inline;fill:#008000;}
</style>
<g id="Layer_1">
</g>
<g id="Layer_2">
	<circle class="st0" cx="268" cy="268" r="268"/>
	<path class="st1" d="M59.8,255.4c0,0,0.2,0,0.6,0c0,0,0.7,0,0.7,0c0.1,0,0.2,0,0.2,0c0,0,1.3,0.1,1.4,0.1c0.3,0,0.6,0,0.9,0.1
		c0.3,0,4.7,0.3,5.4,0.3c3.1,0.2,6.8,0.4,11.1,0.7c1,0.1,2.8,0.2,4,0.3c1.5,0.1,3.1,0.2,4.7,0.3c1.4,0.1,2.5,0.2,4,0.3
		c1.5,0.1,3,0.2,4.5,0.3c1.4,0.1,2,0.1,3.4,0.2c2.6,0.2,5.3,0.3,8.1,0.5c1.8,0.1,2,0.1,3.8,0.2c0.8,0.1,1.7,0.1,2.5,0.2
		c1.4,0.1,1.5,0.1,3,0.2c2.7,0.2,5.5,0.3,8.2,0.5c3.6,0.2,3.7,0.2,7.3,0.5c1.2,0.1,2.4,0.2,3.7,0.2c16.4,1,24.7,1.6,33.8,2.1
		c0.6,0,1.2,0.1,1.7,0.1c4.9,0.3,19.4,1.2,19.4,1.2c5.9,0.2,9.8-3.4,11.1-7.8c0.1-0.3,0.2-0.6,0.2-0.9c0.1-0.6,0.2-1.2,0.2-1.8
		c0-0.6,0-1.2-0.1-1.8s-0.2-1.2-0.4-1.8c-0.9-3-3.1-5.6-6.9-7c0,0-0.6-0.2-1.6-0.6l-1.1-0.4c-0.2-0.1-0.5-0.2-0.8-0.3l-3.9-1.3
		c-0.8-0.3-1.6-0.6-2.6-0.9l-4.7-1.6c-1.4-0.5-2.9-1-4.5-1.6l-4.1-1.4c-0.6-0.2-1.2-0.4-1.8-0.6l-2.8-0.9c-0.9-0.3-1.8-0.6-2.7-0.9
		l-5.3-1.8c-1-0.3-1.9-0.7-2.9-1L71,199.5l0,0c-17.5-6.3-37.1,6.7-38,25.4C31.9,240.8,43.9,254.4,59.8,255.4z"/>
	<path class="st2" d="M71.4,335.9c0.3-0.1,0.6-0.2,1.1-0.4l0.9-0.3c0.4-0.1,0.9-0.3,1.4-0.5l3.7-1.3c1.1-0.4,2.2-0.8,3.5-1.2
		l1.1-0.4c0.9-0.3,1.8-0.6,2.7-0.9l1.7-0.6c0.4-0.1,0.7-0.2,1.1-0.4l3.7-1.2c0.3-0.1,0.6-0.2,1-0.3l3.8-1.3c1.2-0.4,2.5-0.8,3.7-1.3
		l4.8-1.6c2.1-0.7,4.3-1.5,6.5-2.2l18-6.1c0.4-0.1,0.8-0.3,1.2-0.4l6.2-2.1c1.9-0.6,3.8-1.3,5.6-1.9l6.6-2.3
		c0.8-0.3,1.6-0.5,2.3-0.8l24.6-8.4c0.2-0.1,0.3-0.1,0.5-0.2l19.4-6.6c6.3-2.3,8.3-8.3,6.9-13.3c-0.1-0.3-0.2-0.6-0.3-0.9
		c-0.2-0.6-0.5-1.1-0.8-1.7c-1.8-3.2-5.3-5.5-10-5.4c0,0-0.4,0-0.4,0c-0.2,0-0.4,0-0.8,0c0,0-0.8,0-0.8,0c-0.3,0-0.7,0-1.1,0.1
		c-0.1,0-2,0.1-2.2,0.1c-0.4,0-0.7,0-1.1,0.1c-0.8,0.1-7.3,0.4-9.2,0.6c-0.6,0-1.2,0.1-1.9,0.1c-0.9,0.1-2.9,0.2-4,0.2
		c-1,0.1-2,0.1-3,0.2c-3.3,0.2-6.7,0.4-11,0.7c-1.6,0.1-3.2,0.2-4.8,0.3c-1.3,0.1-1.7,0.1-3.1,0.2c-0.9,0.1-1.7,0.1-2.6,0.2
		c-2,0.1-2.4,0.1-4.5,0.3c-0.4,0-0.8,0-1.1,0.1c-38.5,2.4-81,5-81,5l0,0c-18.6,0.9-31.8,20.4-25.5,38c5.1,15,21.5,23.1,36.5,17.9
		L71.4,335.9z"/>
	<path class="st2" d="M117.7,401.2l2.9-2.6c1.6-1.4,3.3-2.9,5.2-4.6l4.3-3.8c0.8-0.7,1.6-1.4,2.5-2.2l4.3-3.8
		c1.3-1.2,2.7-2.4,4.1-3.6l3.4-3c1.1-0.9,2.1-1.9,3.2-2.8l0.3-0.3c2-1.8,4-3.5,6.1-5.3l6.6-5.8c0.9-0.8,1.8-1.5,2.6-2.3l6.7-5.9
		c0.9-0.8,1.7-1.5,2.6-2.3l2.5-2.2c1.3-1.2,2.7-2.3,4-3.5l2.2-1.9c0.4-0.4,0.9-0.8,1.3-1.2l3.7-3.3c0,0,0,0,0,0l11.1-9.7
		c0.6-0.5,1.1-1,1.7-1.5l3.1-2.7c0.1-0.1,0.2-0.1,0.2-0.2l9.1-8c4.9-4.5,4.5-10.8,1.3-14.9c-0.2-0.2-0.4-0.5-0.6-0.7
		c-0.4-0.5-0.9-0.9-1.4-1.2c-2.9-2.3-7-3.1-11.3-1.1c0,0-2.6,1.3-2.7,1.3c-0.5,0.2-1.1,0.5-1.7,0.8c-0.2,0.1-2.8,1.4-3.2,1.6
		c-1.9,0.9-4.1,2-6.6,3.2c-0.2,0.1-0.8,0.4-1,0.5c-0.7,0.3-1.4,0.7-2.1,1c-0.7,0.3-1.9,0.9-2.6,1.3c-1.3,0.6-2.7,1.3-4.1,2
		c-0.7,0.3-1.3,0.6-2,1c-1,0.5-1.9,1-2.9,1.4c-5.1,2.5-7.4,3.6-13.7,6.7c-0.1,0.1-0.3,0.1-0.4,0.2c-2.2,1.1-2.4,1.2-4.7,2.3
		c-0.5,0.2-1,0.5-1.5,0.7c-7.7,3.7-8,3.9-15.8,7.7c0,0-0.1,0-0.1,0c-26.7,13-54,26.3-54,26.3l0,0c-16.8,7.9-21.5,31-9,44.8
		c10.5,11.9,28.7,13.1,40.6,2.6l4.7-4.1C117,401.9,117.3,401.5,117.7,401.2z"/>
	<path class="st2" d="M235.9,334.5C235.9,334.5,235.9,334.5,235.9,334.5c0.1-0.3,0.1-0.5,0.2-0.8c0-0.2,0.1-0.3,0.1-0.5c0,0,0,0,0,0
		c0.4-2.4-0.1-4.7-1.2-6.6c-0.1-0.2-0.2-0.4-0.3-0.6c0,0,0,0,0,0c-0.5-0.9-1.2-1.7-2-2.4c-1.5-1.4-3.4-2.2-5.2-2.5
		c-0.1,0-0.3,0-0.4-0.1c-0.1,0-0.2,0-0.3,0c-2.3-0.3-4.6,0.1-6.8,1.4c-1,0.6-1.9,1.3-2.6,2.2l-0.2,0.2c-0.2,0.2-0.5,0.6-1.1,1.2
		l-3.3,3.7c-0.3,0.3-0.6,0.6-0.9,1l-6.4,7.2c-1,1.1-2,2.3-3.1,3.5l-0.9,1c-0.9,1-1.8,2.1-2.8,3.2l-8.4,9.5c-1.1,1.2-2.1,2.4-3.2,3.6
		l-5.3,6c-0.1,0.1-0.2,0.3-0.3,0.4l-51.9,58.7l0,0c-12.5,13.8-8.1,36.9,8.9,44.9c14.3,7,31.5,1.1,38.5-13.1l58.5-119
		C235.5,335.9,235.7,335.2,235.9,334.5z"/>
	<path class="st2" d="M263.7,341.7c0-0.2-0.1-0.5-0.1-0.7c0-0.2-0.1-0.3-0.1-0.5c0,0,0,0,0,0c-0.6-2.4-1.9-4.3-3.6-5.6
		c-0.2-0.1-0.3-0.3-0.5-0.4c0,0,0,0,0,0c-0.8-0.6-1.8-1.1-2.8-1.5c-1.9-0.7-3.9-0.7-5.8-0.3c-0.1,0-0.3,0.1-0.4,0.1
		c-0.1,0-0.2,0-0.3,0.1c-2.2,0.6-4.3,1.9-5.8,3.9c-0.7,0.9-1.2,1.9-1.6,3l-0.4,1.2c-0.1,0.3-0.2,0.5-0.3,0.9l-0.6,1.8
		c-1.3,3.9-3.6,10.6-6.5,18.8l-2.6,7.6c-0.5,1.5-1.1,3.1-1.6,4.7l-3.8,11.1c-0.3,0.8-0.6,1.7-0.9,2.5l-1.6,4.7
		c-0.2,0.7-0.5,1.4-0.7,2.1l-24.1,70l0,0c-6.3,17.5,6.7,37.2,25.4,38.1c15.9,1,29.5-11,30.5-26.9l8.4-132.2
		C263.9,343.2,263.9,342.5,263.7,341.7C263.8,341.7,263.8,341.7,263.7,341.7z"/>
	<path class="st2" d="M293.2,339.8c-0.2-0.7-0.6-1.4-0.9-2c0,0,0,0,0,0c-0.1-0.2-0.3-0.4-0.4-0.6c-0.1-0.1-0.2-0.3-0.3-0.4
		c0,0,0,0,0,0c-1.5-2-3.4-3.2-5.5-3.8c-0.2-0.1-0.4-0.1-0.6-0.2c0,0,0,0,0,0c-1-0.2-2.1-0.3-3.2-0.3c-2,0.1-3.9,0.8-5.5,1.9
		c-0.1,0.1-0.2,0.2-0.3,0.2c-0.1,0.1-0.2,0.1-0.2,0.2c-1.8,1.4-3.2,3.3-3.8,5.8c-0.3,1.1-0.4,2.2-0.3,3.4l0,0.2c0,0.2,0,0.6,0.1,1.3
		l0.4,6.8c0.1,1.1,0.1,2.3,0.2,3.6l0.2,3.3c0.1,1.5,0.2,3.1,0.3,4.8l0.2,2.8c0.1,1,0.1,2,0.2,3.1l1.4,23.4c0.1,0.9,0.1,1.8,0.2,2.8
		l0.2,3.9c0,0.5,0.1,1.1,0.1,1.6l4.6,74.7h0c0.9,18.6,20.4,31.8,38,25.4c15-5.1,23-21.5,17.9-36.5L293.2,339.8z"/>
	<path class="st2" d="M318.7,324.7c-0.5-0.6-1.1-1.1-1.7-1.5c0,0,0,0,0,0c-0.2-0.2-0.4-0.3-0.6-0.4c-0.1-0.1-0.3-0.2-0.4-0.3
		c0,0,0,0,0,0c-2.1-1.3-4.4-1.7-6.6-1.4c-0.2,0-0.4,0.1-0.7,0.1c0,0,0,0,0,0c-1,0.2-2,0.5-3,1c-1.8,0.9-3.3,2.3-4.3,3.9
		c-0.1,0.1-0.1,0.2-0.2,0.3c-0.1,0.1-0.1,0.2-0.1,0.3c-1.1,2-1.7,4.3-1.3,6.9c0.2,1.1,0.5,2.2,1,3.3c0,0,0,0.1,0.1,0.2
		c0,0,0.2,0.4,0.2,0.4c0.3,0.6,0.8,1.7,1.5,3.2c0.1,0.1,0.9,1.8,1,2c0.6,1.3,1.4,2.8,2.2,4.5c0.5,1,2.4,4.8,3.1,6.3
		c0.9,1.8,1.8,3.7,2.8,5.8c2.4,4.8,4.3,8.9,7.7,15.8c0.8,1.7,1.6,3.3,2.5,5c1.1,2.2,1.2,2.5,2.4,4.9c0.1,0.3,0.3,0.5,0.4,0.8
		c16.6,34,34.3,70.3,34.3,70.3l0,0c8,16.8,31,21.5,44.8,8.9c11.9-10.5,13.1-28.7,2.6-40.6L318.7,324.7z"/>
	<path class="st2" d="M455.5,359.3l-2.3-1.2c-0.4-0.2-0.9-0.5-1.5-0.7l-0.3-0.1c-0.6-0.3-1.2-0.6-1.9-0.9l-1.6-0.8
		c-0.6-0.3-1.2-0.6-1.8-0.9l-3.7-1.8c-1.1-0.5-2.3-1.1-3.5-1.7l-0.1,0c-0.9-0.4-1.8-0.9-2.7-1.3l-11.9-5.8c-1.7-0.8-3.5-1.7-5.3-2.6
		l-2.7-1.3c-1.4-0.7-2.8-1.4-4.2-2.1l-9.8-4.8c-1.8-0.9-3.6-1.8-5.4-2.6l-10.9-5.3c-2.8-1.4-5.5-2.7-8.2-4l-6-3
		c-0.1-0.1-0.2-0.1-0.4-0.2l-7.2-3.5c-0.1-0.1-0.2-0.1-0.3-0.2l-2.8-1.4c-1.1-0.5-2.2-1.1-3.3-1.6l-2.1-1c-1.6-0.8-3.1-1.5-4.5-2.2
		l-3.6-1.8c-0.1-0.1-0.3-0.1-0.4-0.2l-4.9-2.4c-0.5-0.3-1-0.5-1.5-0.7l-0.9-0.5c-1.5-0.7-2.5-1.2-3-1.5l-0.2-0.1
		c-0.2-0.1-0.3-0.1-0.3-0.1l0,0c-1-0.5-1.9-0.8-2.9-0.9c-0.8-0.1-1.6-0.2-2.3-0.2c-3,0.1-5.6,1.4-7.5,3.4c-0.8,0.9-1.5,1.9-2,3
		c-0.3,0.6-0.5,1.1-0.6,1.7c-1,3.6-0.2,7.6,3.3,10.9l0.2,0.2c0.1,0.1,0.4,0.3,0.7,0.6l0.4,0.4c0.4,0.3,0.8,0.7,1.3,1.1l2.2,1.9
		c0.4,0.3,0.7,0.7,1.1,1l2.7,2.4c0.4,0.3,0.8,0.7,1.2,1l2.1,1.8c0.3,0.2,0.6,0.5,0.8,0.7l4,3.6c1,0.8,1.9,1.7,3,2.6l8.8,7.8
		c0.4,0.4,0.8,0.7,1.2,1.1l69.7,61.6l0,0c13.8,12.5,36.9,8,44.9-8.9C475.7,383.5,469.8,366.3,455.5,359.3z"/>
	<path class="st2" d="M476.2,280.6c0,0-0.2,0-0.6,0l-0.7,0c-0.1,0-0.1,0-0.2,0l-1.4-0.1c-0.3,0-0.6,0-0.9-0.1l-1.6-0.1
		c-0.2,0-0.5,0-0.7,0l-3.1-0.2c-3.1-0.2-6.8-0.4-11-0.7l-4.2-0.3c-1.5-0.1-3-0.2-4.6-0.3l-4.1-0.3c-1.4-0.1-2.9-0.2-4.4-0.3
		l-3.6-0.2c-2.6-0.2-5.2-0.3-7.9-0.5l-4-0.3c-0.8-0.1-1.6-0.1-2.5-0.2l-2.9-0.2c-2.6-0.2-5.3-0.3-7.9-0.5l-7.8-0.5
		c-1.1-0.1-2.2-0.1-3.3-0.2l-34.2-2.2c-0.4,0-0.8-0.1-1.2-0.1l-19.8-1.3c-5.1-0.2-8.8,2.5-10.5,6.1c-0.1,0.3-0.3,0.6-0.4,0.8
		c-0.2,0.6-0.4,1.2-0.5,1.8c-1,4.8,1.1,10.2,7.1,12.5c0,0,0.6,0.2,1.6,0.6l1.1,0.4c0.2,0.1,0.5,0.2,0.8,0.3l3.9,1.3
		c0.8,0.3,1.6,0.6,2.6,0.9l4.7,1.6c1.4,0.5,2.9,1,4.5,1.6l4.1,1.4c0.6,0.2,1.2,0.4,1.8,0.6l2.8,0.9c0.9,0.3,1.8,0.6,2.7,0.9l5.3,1.8
		c1,0.3,1.9,0.7,2.9,1l86.8,29.8l0,0c17.5,6.3,37.1-6.7,38-25.4C504.1,295.2,492.1,281.6,476.2,280.6z"/>
	<path class="st1" d="M464.6,200.1c-0.2,0.1-0.6,0.2-1,0.3l-1.2,0.4c-0.4,0.1-0.8,0.3-1.2,0.4l-3.7,1.3c-1.1,0.4-2.3,0.8-3.6,1.2
		l-0.9,0.3c-1,0.3-2,0.7-3.1,1.1l-0.8,0.3c-0.6,0.2-1.3,0.4-2,0.7l-3.2,1.1c-0.5,0.2-1,0.3-1.5,0.5l-3.2,1.1c-1.5,0.5-3,1-4.6,1.6
		l-3.3,1.1c-2.8,1-5.8,2-8.8,3l-7.1,2.4c-0.8,0.3-1.6,0.6-2.5,0.8l-8.4,2.9c-1.3,0.5-2.6,0.9-4,1.4l-3.4,1.2
		c-1.9,0.6-3.8,1.3-5.6,1.9l-5,1.7c-1.5,0.5-3,1-4.5,1.5l-17.8,6.1c-0.3,0.1-0.5,0.2-0.8,0.3l-4.3,1.5c0,0-0.1,0-0.1,0l-12.5,4.3
		c-0.3,0.1-0.6,0.2-0.9,0.3l-6.1,2.1c-4.8,1.8-7.1,5.7-7.3,9.7c0,0.9,0,1.8,0.2,2.7c0.1,0.6,0.3,1.2,0.5,1.8c1.5,4,5.3,7.2,10.8,7
		l0.4,0c0.2,0,0.4,0,0.8,0l0.8,0c0.3,0,0.7,0,1.1-0.1l2.2-0.1c0.4,0,0.7,0,1.1-0.1l9.2-0.6c0.6,0,1.2-0.1,1.8-0.1l4.1-0.3
		c0.9-0.1,1.8-0.1,2.8-0.2l11-0.7c1.6-0.1,3.1-0.2,4.7-0.3l3.1-0.2c0.8-0.1,1.7-0.1,2.5-0.2l4.6-0.3c0.4,0,0.7,0,1.1-0.1l81.1-5l0,0
		c18.6-0.9,31.8-20.4,25.5-38c-5.1-15-21.5-23.1-36.5-17.9L464.6,200.1z"/>
	<path class="st1" d="M418.1,134.9l-2.2,1.9c-0.4,0.3-0.8,0.7-1.2,1.1l-2.4,2.1c-1,0.9-2.1,1.9-3.3,2.9l-2.9,2.5
		c-1.3,1.1-2.6,2.2-3.9,3.4l-2.3,2c-0.7,0.6-1.4,1.2-2.1,1.9l-1.8,1.6c-0.7,0.6-1.4,1.2-2.1,1.8l-3.3,2.9c-0.1,0.1-0.3,0.2-0.4,0.4
		l-3.2,2.8c-2.1,1.9-4.3,3.8-6.5,5.7l-5.8,5.1c-2.3,2-4.5,4-6.7,5.9l-2.2,1.9c-1.5,1.3-3,2.6-4.4,3.9l-2.8,2.4c-2,1.8-4,3.5-5.9,5.2
		l-7.5,6.6c-3,2.7-5.8,5.1-8.3,7.3l-2,1.7c-2.2,1.9-4,3.6-5.6,4.9l-2.9,2.5c-1.3,1.1-2,1.7-2,1.7l0,0l0,0c-1.2,1.1-2,2.2-2.6,3.4
		c-0.2,0.4-0.4,0.8-0.5,1.2c-0.5,1.4-0.7,2.9-0.5,4.4c0,0.3,0.1,0.6,0.1,0.9c0.1,0.6,0.3,1.2,0.5,1.8c0.1,0.3,0.2,0.6,0.3,0.9
		c0.5,1.1,1.2,2.2,2,3.1c2.9,3.2,7.6,4.7,12.7,2.4l2.7-1.3c0.5-0.3,1.1-0.6,1.8-0.9l2.8-1.4c1.2-0.6,2.6-1.3,4.1-2l10.8-5.3
		c1.1-0.6,2.3-1.1,3.5-1.7l4.2-2c0.7-0.3,1.4-0.7,2.1-1l4.7-2.3c2.9-1.4,5.9-2.9,9-4.4l5-2.4c0.9-0.5,1.9-0.9,2.8-1.4l65.8-32.1l0,0
		c16.8-7.9,21.5-31,9-44.8c-10.5-11.9-28.7-13.1-40.6-2.6l-4.6,4.1C419.1,134.1,418.6,134.5,418.1,134.9z"/>
	<path class="st1" d="M300.1,201.5C300.1,201.5,300.1,201.5,300.1,201.5c-0.1,0.3-0.1,0.5-0.2,0.8c0,0.2-0.1,0.3-0.1,0.5
		c0,0,0,0,0,0c-0.4,2.4,0.1,4.7,1.2,6.6c0.1,0.2,0.2,0.4,0.3,0.6c0,0,0,0,0,0c0.5,0.9,1.2,1.7,2,2.4c1.5,1.4,3.4,2.2,5.2,2.5
		c0.1,0,0.3,0,0.4,0.1c0.1,0,0.2,0,0.3,0c2.3,0.3,4.6-0.1,6.8-1.4c1-0.6,1.9-1.3,2.6-2.2l0.2-0.2c0.2-0.2,0.6-0.6,1.1-1.2l3.2-3.6
		c0.4-0.4,0.8-0.9,1.2-1.3l0.7-0.8c0.3-0.3,0.6-0.7,0.9-1l4.3-4.9c1.9-2.1,3.9-4.5,6.2-7l5.8-6.6c0.4-0.4,0.8-0.9,1.1-1.3l3.6-4.1
		c0.9-1,1.7-1.9,2.6-2.9l57-64.4l0,0c12.5-13.8,8.1-36.9-8.9-44.9c-14.3-7-31.5-1.1-38.5,13.1l-58.5,119
		C300.5,200.1,300.3,200.8,300.1,201.5z"/>
	<path class="st1" d="M272.3,194.3c0,0.2,0.1,0.5,0.1,0.7c0,0.2,0.1,0.3,0.1,0.5c0,0,0,0,0,0c0.6,2.4,1.9,4.3,3.6,5.6
		c0.2,0.1,0.3,0.3,0.5,0.4c0,0,0,0,0,0c0.8,0.6,1.8,1.1,2.8,1.5c1.9,0.7,3.9,0.7,5.8,0.3c0.1,0,0.3-0.1,0.4-0.1c0.1,0,0.2,0,0.3-0.1
		c2.2-0.6,4.3-1.9,5.8-3.9c0.7-0.9,1.2-1.9,1.6-3c0,0,0.4-1.2,0.4-1.2c0.1-0.3,0.2-0.6,0.3-0.9c0-0.1,0.5-1.6,0.6-1.7
		c0.2-0.5,0.4-1.1,0.6-1.7c0.1-0.2,0.7-2.1,0.8-2.4c0.2-0.7,0.5-1.4,0.8-2.2c0.1-0.4,0.8-2.2,0.9-2.7c0.8-2.2,1.6-4.7,2.6-7.4
		c1.2-3.4,2.6-7.6,4.3-12.5c0.4-1,0.7-2.1,1.1-3.1c0.4-1.2,0.6-1.7,1.1-3.1c0.1-0.3,0.2-0.7,0.3-1c4.7-13.6,5.5-16,10.8-31.3
		c0.1-0.2,0.1-0.4,0.2-0.5c9-26.2,18.4-53.5,18.4-53.5l0,0c6.3-17.5-6.7-37.2-25.4-38.1c-15.9-1-29.5,11-30.5,26.9L272.1,192
		C272.1,192.8,272.1,193.5,272.3,194.3C272.2,194.3,272.2,194.3,272.3,194.3z"/>
	<path class="st1" d="M263,175.8c-0.1-1.4-0.2-2.9-0.3-4.4c-0.4-7-0.9-15.3-1.5-24.1c-2.4-38.4-5.4-87.5-5.4-87.5l0,0
		c-0.9-18.6-20.4-31.8-38-25.4c-15,5.1-23,21.5-17.9,36.5l42.9,125.4c0.2,0.7,0.6,1.4,0.9,2c0,0,0,0,0,0c0.1,0.2,0.3,0.4,0.4,0.6
		c0.1,0.1,0.2,0.3,0.3,0.4c0,0,0,0,0,0c1.5,2,3.4,3.2,5.5,3.8c0.2,0.1,0.4,0.1,0.6,0.2c0,0,0,0,0,0c1,0.2,2.1,0.3,3.1,0.3
		c2-0.1,3.9-0.8,5.5-1.9c0.1-0.1,0.2-0.2,0.3-0.2c0.1-0.1,0.2-0.1,0.2-0.2c1.8-1.4,3.2-3.3,3.8-5.8c0.3-1.1,0.4-2.2,0.3-3.4
		C264,192,263.6,185.7,263,175.8z"/>
	<path class="st1" d="M217.3,211.3c0.5,0.6,1.1,1.1,1.7,1.5c0,0,0,0,0,0c0.2,0.2,0.4,0.3,0.6,0.4c0.1,0.1,0.3,0.2,0.4,0.3
		c0,0,0,0,0,0c2.1,1.3,4.4,1.7,6.6,1.4c0.2,0,0.4-0.1,0.7-0.1c0,0,0,0,0,0c1-0.2,2-0.5,3-1c1.8-0.9,3.3-2.3,4.3-3.9
		c0.1-0.1,0.1-0.2,0.2-0.3c0.1-0.1,0.1-0.2,0.1-0.3c1.1-2,1.7-4.3,1.3-6.9c-0.2-1.1-0.5-2.2-1-3.3c0,0,0-0.1-0.1-0.2l-0.2-0.4
		c-0.3-0.6-0.8-1.7-1.6-3.2l-1-2c-0.7-1.4-1.5-3-2.3-4.8l-2.9-5.9c-1-2-2-4.2-3.1-6.4l-0.2-0.4c-0.5-1.1-1.1-2.3-1.7-3.4l-1.3-2.6
		c-0.4-0.9-0.9-1.8-1.3-2.7l-2.4-4.8c-0.2-0.4-0.4-0.9-0.7-1.3l-6.4-13.1c0,0,0-0.1,0-0.1l-2.7-5.4c0-0.1,0-0.1-0.1-0.2l-30.4-62.3
		l0,0c-8-16.8-31-21.5-44.8-8.9c-11.9,10.5-13.1,28.7-2.6,40.6L217.3,211.3z"/>
	<path class="st1" d="M80.5,176.7l2.4,1.2c0.4,0.2,0.9,0.4,1.4,0.7l0.5,0.2c0.5,0.3,1.1,0.5,1.7,0.8l7.5,3.7
		c0.9,0.4,1.8,0.9,2.7,1.3l1.4,0.7c1.2,0.6,2.5,1.2,3.8,1.9l2.7,1.3c1,0.5,1.9,0.9,2.9,1.4l1.6,0.8c1.3,0.6,2.6,1.3,4,2l0.5,0.2
		c2.3,1.1,4.6,2.2,7,3.4l4.6,2.2c2.5,1.2,5.1,2.5,7.6,3.7l4.4,2.1c3.5,1.7,7.1,3.5,10.6,5.2l11.2,5.5c3.3,1.6,6.4,3.2,9.5,4.7
		l1.7,0.8c1.5,0.7,3,1.5,4.5,2.2l5.1,2.5c0.9,0.4,1.7,0.8,2.5,1.2l2.8,1.4c0.2,0.1,0.4,0.2,0.7,0.3l2.7,1.3c0.3,0.2,0.7,0.3,1,0.5
		l4.6,2.2c0.6,0.3,1.1,0.5,1.6,0.8l0.9,0.4c1.5,0.7,2.5,1.2,3.1,1.5l0.1,0.1c0.2,0.1,0.3,0.1,0.3,0.1l0,0c0.9,0.4,1.8,0.7,2.7,0.9
		c0.2,0,0.4,0.1,0.7,0.1c0.6,0.1,1.2,0.1,1.8,0.1c0,0,0,0,0,0c3.3-0.1,6.2-1.7,8.1-4.1c0.4-0.5,0.7-1,1-1.5c0.3-0.5,0.6-1.1,0.8-1.7
		c0.3-0.9,0.5-1.8,0.6-2.7c0-0.3,0-0.6,0-0.9s0-0.6,0-0.9c-0.1-0.6-0.2-1.3-0.3-1.9c-0.2-0.6-0.4-1.2-0.7-1.9
		c-0.6-1.2-1.5-2.4-2.6-3.5l-0.2-0.2c-0.1-0.1-0.4-0.3-0.7-0.6l-0.4-0.4c-0.4-0.3-0.9-0.8-1.4-1.2l-2-1.8c-0.4-0.4-0.8-0.7-1.3-1.1
		l-2.5-2.2c-0.5-0.4-1-0.8-1.5-1.3l-1.6-1.4c-0.5-0.4-1-0.9-1.5-1.4l-3.3-2.9c-1.4-1.2-2.8-2.5-4.3-3.8l-2-1.8
		c-0.1-0.1-0.2-0.2-0.4-0.3l-4.2-3.7c-1-0.8-1.9-1.7-2.9-2.6l-21.6-19.1c-0.1-0.1-0.2-0.2-0.3-0.3l-47.2-41.7l0,0
		c-13.8-12.5-36.9-8-44.9,8.9C60.3,152.5,66.2,169.7,80.5,176.7z"/>
</g>
<g id="Layer_3" class="st3">
	<path class="st4" d="M59.8,255.4c0,0,0.2,0,0.6,0c0,0,0.7,0,0.7,0c0.1,0,0.2,0,0.2,0c0,0,1.3,0.1,1.4,0.1c0.3,0,0.6,0,0.9,0.1
		c0.3,0,4.7,0.3,5.4,0.3c3.1,0.2,6.8,0.4,11.1,0.7c1,0.1,2.8,0.2,4,0.3c1.5,0.1,3.1,0.2,4.7,0.3c1.4,0.1,2.5,0.2,4,0.3
		c1.5,0.1,3,0.2,4.5,0.3c1.4,0.1,2,0.1,3.4,0.2c2.6,0.2,5.3,0.3,8.1,0.5c1.8,0.1,2,0.1,3.8,0.2c0.8,0.1,1.7,0.1,2.5,0.2
		c1.4,0.1,1.5,0.1,3,0.2c2.7,0.2,5.5,0.3,8.2,0.5c3.6,0.2,3.7,0.2,7.3,0.5c1.2,0.1,2.4,0.2,3.7,0.2c16.4,1,24.7,1.6,33.8,2.1
		c0.6,0,1.2,0.1,1.7,0.1c4.9,0.3,19.4,1.2,19.4,1.2c5.9,0.2,9.8-3.4,11.1-7.8c0.1-0.3,0.2-0.6,0.2-0.9c0.1-0.6,0.2-1.2,0.2-1.8
		c0-0.6,0-1.2-0.1-1.8s-0.2-1.2-0.4-1.8c-0.9-3-3.1-5.6-6.9-7c0,0-0.6-0.2-1.6-0.6l-1.1-0.4c-0.2-0.1-0.5-0.2-0.8-0.3l-3.9-1.3
		c-0.8-0.3-1.6-0.6-2.6-0.9l-4.7-1.6c-1.4-0.5-2.9-1-4.5-1.6l-4.1-1.4c-0.6-0.2-1.2-0.4-1.8-0.6l-2.8-0.9c-0.9-0.3-1.8-0.6-2.7-0.9
		l-5.3-1.8c-1-0.3-1.9-0.7-2.9-1L71,199.5l0,0c-17.5-6.3-37.1,6.7-38,25.4C31.9,240.8,43.9,254.4,59.8,255.4z"/>
	<path class="st5" d="M71.4,335.9c0.3-0.1,0.6-0.2,1.1-0.4l0.9-0.3c0.4-0.1,0.9-0.3,1.4-0.5l3.7-1.3c1.1-0.4,2.2-0.8,3.5-1.2
		l1.1-0.4c0.9-0.3,1.8-0.6,2.7-0.9l1.7-0.6c0.4-0.1,0.7-0.2,1.1-0.4l3.7-1.2c0.3-0.1,0.6-0.2,1-0.3l3.8-1.3c1.2-0.4,2.5-0.8,3.7-1.3
		l4.8-1.6c2.1-0.7,4.3-1.5,6.5-2.2l18-6.1c0.4-0.1,0.8-0.3,1.2-0.4l6.2-2.1c1.9-0.6,3.8-1.3,5.6-1.9l6.6-2.3
		c0.8-0.3,1.6-0.5,2.3-0.8l24.6-8.4c0.2-0.1,0.3-0.1,0.5-0.2l19.4-6.6c6.3-2.3,8.3-8.3,6.9-13.3c-0.1-0.3-0.2-0.6-0.3-0.9
		c-0.2-0.6-0.5-1.1-0.8-1.7c-1.8-3.2-5.3-5.5-10-5.4c0,0-0.4,0-0.4,0c-0.2,0-0.4,0-0.8,0c0,0-0.8,0-0.8,0c-0.3,0-0.7,0-1.1,0.1
		c-0.1,0-2,0.1-2.2,0.1c-0.4,0-0.7,0-1.1,0.1c-0.8,0.1-7.3,0.4-9.2,0.6c-0.6,0-1.2,0.1-1.9,0.1c-0.9,0.1-2.9,0.2-4,0.2
		c-1,0.1-2,0.1-3,0.2c-3.3,0.2-6.7,0.4-11,0.7c-1.6,0.1-3.2,0.2-4.8,0.3c-1.3,0.1-1.7,0.1-3.1,0.2c-0.9,0.1-1.7,0.1-2.6,0.2
		c-2,0.1-2.4,0.1-4.5,0.3c-0.4,0-0.8,0-1.1,0.1c-38.5,2.4-81,5-81,5l0,0c-18.6,0.9-31.8,20.4-25.5,38c5.1,15,21.5,23.1,36.5,17.9
		L71.4,335.9z"/>
	<path class="st5" d="M117.7,401.2l2.9-2.6c1.6-1.4,3.3-2.9,5.2-4.6l4.3-3.8c0.8-0.7,1.6-1.4,2.5-2.2l4.3-3.8
		c1.3-1.2,2.7-2.4,4.1-3.6l3.4-3c1.1-0.9,2.1-1.9,3.2-2.8l0.3-0.3c2-1.8,4-3.5,6.1-5.3l6.6-5.8c0.9-0.8,1.8-1.5,2.6-2.3l6.7-5.9
		c0.9-0.8,1.7-1.5,2.6-2.3l2.5-2.2c1.3-1.2,2.7-2.3,4-3.5l2.2-1.9c0.4-0.4,0.9-0.8,1.3-1.2l3.7-3.3c0,0,0,0,0,0l11.1-9.7
		c0.6-0.5,1.1-1,1.7-1.5l3.1-2.7c0.1-0.1,0.2-0.1,0.2-0.2l9.1-8c4.9-4.5,4.5-10.8,1.3-14.9c-0.2-0.2-0.4-0.5-0.6-0.7
		c-0.4-0.5-0.9-0.9-1.4-1.2c-2.9-2.3-7-3.1-11.3-1.1c0,0-2.6,1.3-2.7,1.3c-0.5,0.2-1.1,0.5-1.7,0.8c-0.2,0.1-2.8,1.4-3.2,1.6
		c-1.9,0.9-4.1,2-6.6,3.2c-0.2,0.1-0.8,0.4-1,0.5c-0.7,0.3-1.4,0.7-2.1,1c-0.7,0.3-1.9,0.9-2.6,1.3c-1.3,0.6-2.7,1.3-4.1,2
		c-0.7,0.3-1.3,0.6-2,1c-1,0.5-1.9,1-2.9,1.4c-5.1,2.5-7.4,3.6-13.7,6.7c-0.1,0.1-0.3,0.1-0.4,0.2c-2.2,1.1-2.4,1.2-4.7,2.3
		c-0.5,0.2-1,0.5-1.5,0.7c-7.7,3.7-8,3.9-15.8,7.7c0,0-0.1,0-0.1,0c-26.7,13-54,26.3-54,26.3l0,0c-16.8,7.9-21.5,31-9,44.8
		c10.5,11.9,28.7,13.1,40.6,2.6l4.7-4.1C117,401.9,117.3,401.5,117.7,401.2z"/>
	<path class="st5" d="M235.9,334.5C235.9,334.5,235.9,334.5,235.9,334.5c0.1-0.3,0.1-0.5,0.2-0.8c0-0.2,0.1-0.3,0.1-0.5c0,0,0,0,0,0
		c0.4-2.4-0.1-4.7-1.2-6.6c-0.1-0.2-0.2-0.4-0.3-0.6c0,0,0,0,0,0c-0.5-0.9-1.2-1.7-2-2.4c-1.5-1.4-3.4-2.2-5.2-2.5
		c-0.1,0-0.3,0-0.4-0.1c-0.1,0-0.2,0-0.3,0c-2.3-0.3-4.6,0.1-6.8,1.4c-1,0.6-1.9,1.3-2.6,2.2l-0.2,0.2c-0.2,0.2-0.5,0.6-1.1,1.2
		l-3.3,3.7c-0.3,0.3-0.6,0.6-0.9,1l-6.4,7.2c-1,1.1-2,2.3-3.1,3.5l-0.9,1c-0.9,1-1.8,2.1-2.8,3.2l-8.4,9.5c-1.1,1.2-2.1,2.4-3.2,3.6
		l-5.3,6c-0.1,0.1-0.2,0.3-0.3,0.4l-51.9,58.7l0,0c-12.5,13.8-8.1,36.9,8.9,44.9c14.3,7,31.5,1.1,38.5-13.1l58.5-119
		C235.5,335.9,235.7,335.2,235.9,334.5z"/>
	<path class="st5" d="M263.7,341.7c0-0.2-0.1-0.5-0.1-0.7c0-0.2-0.1-0.3-0.1-0.5c0,0,0,0,0,0c-0.6-2.4-1.9-4.3-3.6-5.6
		c-0.2-0.1-0.3-0.3-0.5-0.4c0,0,0,0,0,0c-0.8-0.6-1.8-1.1-2.8-1.5c-1.9-0.7-3.9-0.7-5.8-0.3c-0.1,0-0.3,0.1-0.4,0.1
		c-0.1,0-0.2,0-0.3,0.1c-2.2,0.6-4.3,1.9-5.8,3.9c-0.7,0.9-1.2,1.9-1.6,3l-0.4,1.2c-0.1,0.3-0.2,0.5-0.3,0.9l-0.6,1.8
		c-1.3,3.9-3.6,10.6-6.5,18.8l-2.6,7.6c-0.5,1.5-1.1,3.1-1.6,4.7l-3.8,11.1c-0.3,0.8-0.6,1.7-0.9,2.5l-1.6,4.7
		c-0.2,0.7-0.5,1.4-0.7,2.1l-24.1,70l0,0c-6.3,17.5,6.7,37.2,25.4,38.1c15.9,1,29.5-11,30.5-26.9l8.4-132.2
		C263.9,343.2,263.9,342.5,263.7,341.7C263.8,341.7,263.8,341.7,263.7,341.7z"/>
	<path class="st5" d="M293.2,339.8c-0.2-0.7-0.6-1.4-0.9-2c0,0,0,0,0,0c-0.1-0.2-0.3-0.4-0.4-0.6c-0.1-0.1-0.2-0.3-0.3-0.4
		c0,0,0,0,0,0c-1.5-2-3.4-3.2-5.5-3.8c-0.2-0.1-0.4-0.1-0.6-0.2c0,0,0,0,0,0c-1-0.2-2.1-0.3-3.2-0.3c-2,0.1-3.9,0.8-5.5,1.9
		c-0.1,0.1-0.2,0.2-0.3,0.2c-0.1,0.1-0.2,0.1-0.2,0.2c-1.8,1.4-3.2,3.3-3.8,5.8c-0.3,1.1-0.4,2.2-0.3,3.4l0,0.2c0,0.2,0,0.6,0.1,1.3
		l0.4,6.8c0.1,1.1,0.1,2.3,0.2,3.6l0.2,3.3c0.1,1.5,0.2,3.1,0.3,4.8l0.2,2.8c0.1,1,0.1,2,0.2,3.1l1.4,23.4c0.1,0.9,0.1,1.8,0.2,2.8
		l0.2,3.9c0,0.5,0.1,1.1,0.1,1.6l4.6,74.7h0c0.9,18.6,20.4,31.8,38,25.4c15-5.1,23-21.5,17.9-36.5L293.2,339.8z"/>
	<path class="st5" d="M318.7,324.7c-0.5-0.6-1.1-1.1-1.7-1.5c0,0,0,0,0,0c-0.2-0.2-0.4-0.3-0.6-0.4c-0.1-0.1-0.3-0.2-0.4-0.3
		c0,0,0,0,0,0c-2.1-1.3-4.4-1.7-6.6-1.4c-0.2,0-0.4,0.1-0.7,0.1c0,0,0,0,0,0c-1,0.2-2,0.5-3,1c-1.8,0.9-3.3,2.3-4.3,3.9
		c-0.1,0.1-0.1,0.2-0.2,0.3c-0.1,0.1-0.1,0.2-0.1,0.3c-1.1,2-1.7,4.3-1.3,6.9c0.2,1.1,0.5,2.2,1,3.3c0,0,0,0.1,0.1,0.2
		c0,0,0.2,0.4,0.2,0.4c0.3,0.6,0.8,1.7,1.5,3.2c0.1,0.1,0.9,1.8,1,2c0.6,1.3,1.4,2.8,2.2,4.5c0.5,1,2.4,4.8,3.1,6.3
		c0.9,1.8,1.8,3.7,2.8,5.8c2.4,4.8,4.3,8.9,7.7,15.8c0.8,1.7,1.6,3.3,2.5,5c1.1,2.2,1.2,2.5,2.4,4.9c0.1,0.3,0.3,0.5,0.4,0.8
		c16.6,34,34.3,70.3,34.3,70.3l0,0c8,16.8,31,21.5,44.8,8.9c11.9-10.5,13.1-28.7,2.6-40.6L318.7,324.7z"/>
	<path class="st5" d="M455.5,359.3l-2.3-1.2c-0.4-0.2-0.9-0.5-1.5-0.7l-0.3-0.1c-0.6-0.3-1.2-0.6-1.9-0.9l-1.6-0.8
		c-0.6-0.3-1.2-0.6-1.8-0.9l-3.7-1.8c-1.1-0.5-2.3-1.1-3.5-1.7l-0.1,0c-0.9-0.4-1.8-0.9-2.7-1.3l-11.9-5.8c-1.7-0.8-3.5-1.7-5.3-2.6
		l-2.7-1.3c-1.4-0.7-2.8-1.4-4.2-2.1l-9.8-4.8c-1.8-0.9-3.6-1.8-5.4-2.6l-10.9-5.3c-2.8-1.4-5.5-2.7-8.2-4l-6-3
		c-0.1-0.1-0.2-0.1-0.4-0.2l-7.2-3.5c-0.1-0.1-0.2-0.1-0.3-0.2l-2.8-1.4c-1.1-0.5-2.2-1.1-3.3-1.6l-2.1-1c-1.6-0.8-3.1-1.5-4.5-2.2
		l-3.6-1.8c-0.1-0.1-0.3-0.1-0.4-0.2l-4.9-2.4c-0.5-0.3-1-0.5-1.5-0.7l-0.9-0.5c-1.5-0.7-2.5-1.2-3-1.5l-0.2-0.1
		c-0.2-0.1-0.3-0.1-0.3-0.1l0,0c-1-0.5-1.9-0.8-2.9-0.9c-0.8-0.1-1.6-0.2-2.3-0.2c-3,0.1-5.6,1.4-7.5,3.4c-0.8,0.9-1.5,1.9-2,3
		c-0.3,0.6-0.5,1.1-0.6,1.7c-1,3.6-0.2,7.6,3.3,10.9l0.2,0.2c0.1,0.1,0.4,0.3,0.7,0.6l0.4,0.4c0.4,0.3,0.8,0.7,1.3,1.1l2.2,1.9
		c0.4,0.3,0.7,0.7,1.1,1l2.7,2.4c0.4,0.3,0.8,0.7,1.2,1l2.1,1.8c0.3,0.2,0.6,0.5,0.8,0.7l4,3.6c1,0.8,1.9,1.7,3,2.6l8.8,7.8
		c0.4,0.4,0.8,0.7,1.2,1.1l69.7,61.6l0,0c13.8,12.5,36.9,8,44.9-8.9C475.7,383.5,469.8,366.3,455.5,359.3z"/>
	<path class="st5" d="M476.2,280.6c0,0-0.2,0-0.6,0l-0.7,0c-0.1,0-0.1,0-0.2,0l-1.4-0.1c-0.3,0-0.6,0-0.9-0.1l-1.6-0.1
		c-0.2,0-0.5,0-0.7,0l-3.1-0.2c-3.1-0.2-6.8-0.4-11-0.7l-4.2-0.3c-1.5-0.1-3-0.2-4.6-0.3l-4.1-0.3c-1.4-0.1-2.9-0.2-4.4-0.3
		l-3.6-0.2c-2.6-0.2-5.2-0.3-7.9-0.5l-4-0.3c-0.8-0.1-1.6-0.1-2.5-0.2l-2.9-0.2c-2.6-0.2-5.3-0.3-7.9-0.5l-7.8-0.5
		c-1.1-0.1-2.2-0.1-3.3-0.2l-34.2-2.2c-0.4,0-0.8-0.1-1.2-0.1l-19.8-1.3c-5.1-0.2-8.8,2.5-10.5,6.1c-0.1,0.3-0.3,0.6-0.4,0.8
		c-0.2,0.6-0.4,1.2-0.5,1.8c-1,4.8,1.1,10.2,7.1,12.5c0,0,0.6,0.2,1.6,0.6l1.1,0.4c0.2,0.1,0.5,0.2,0.8,0.3l3.9,1.3
		c0.8,0.3,1.6,0.6,2.6,0.9l4.7,1.6c1.4,0.5,2.9,1,4.5,1.6l4.1,1.4c0.6,0.2,1.2,0.4,1.8,0.6l2.8,0.9c0.9,0.3,1.8,0.6,2.7,0.9l5.3,1.8
		c1,0.3,1.9,0.7,2.9,1l86.8,29.8l0,0c17.5,6.3,37.1-6.7,38-25.4C504.1,295.2,492.1,281.6,476.2,280.6z"/>
	<path class="st4" d="M464.6,200.1c-0.2,0.1-0.6,0.2-1,0.3l-1.2,0.4c-0.4,0.1-0.8,0.3-1.2,0.4l-3.7,1.3c-1.1,0.4-2.3,0.8-3.6,1.2
		l-0.9,0.3c-1,0.3-2,0.7-3.1,1.1l-0.8,0.3c-0.6,0.2-1.3,0.4-2,0.7l-3.2,1.1c-0.5,0.2-1,0.3-1.5,0.5l-3.2,1.1c-1.5,0.5-3,1-4.6,1.6
		l-3.3,1.1c-2.8,1-5.8,2-8.8,3l-7.1,2.4c-0.8,0.3-1.6,0.6-2.5,0.8l-8.4,2.9c-1.3,0.5-2.6,0.9-4,1.4l-3.4,1.2
		c-1.9,0.6-3.8,1.3-5.6,1.9l-5,1.7c-1.5,0.5-3,1-4.5,1.5l-17.8,6.1c-0.3,0.1-0.5,0.2-0.8,0.3l-4.3,1.5c0,0-0.1,0-0.1,0l-12.5,4.3
		c-0.3,0.1-0.6,0.2-0.9,0.3l-6.1,2.1c-4.8,1.8-7.1,5.7-7.3,9.7c0,0.9,0,1.8,0.2,2.7c0.1,0.6,0.3,1.2,0.5,1.8c1.5,4,5.3,7.2,10.8,7
		l0.4,0c0.2,0,0.4,0,0.8,0l0.8,0c0.3,0,0.7,0,1.1-0.1l2.2-0.1c0.4,0,0.7,0,1.1-0.1l9.2-0.6c0.6,0,1.2-0.1,1.8-0.1l4.1-0.3
		c0.9-0.1,1.8-0.1,2.8-0.2l11-0.7c1.6-0.1,3.1-0.2,4.7-0.3l3.1-0.2c0.8-0.1,1.7-0.1,2.5-0.2l4.6-0.3c0.4,0,0.7,0,1.1-0.1l81.1-5l0,0
		c18.6-0.9,31.8-20.4,25.5-38c-5.1-15-21.5-23.1-36.5-17.9L464.6,200.1z"/>
	<path class="st4" d="M418.1,134.9l-2.2,1.9c-0.4,0.3-0.8,0.7-1.2,1.1l-2.4,2.1c-1,0.9-2.1,1.9-3.3,2.9l-2.9,2.5
		c-1.3,1.1-2.6,2.2-3.9,3.4l-2.3,2c-0.7,0.6-1.4,1.2-2.1,1.9l-1.8,1.6c-0.7,0.6-1.4,1.2-2.1,1.8l-3.3,2.9c-0.1,0.1-0.3,0.2-0.4,0.4
		l-3.2,2.8c-2.1,1.9-4.3,3.8-6.5,5.7l-5.8,5.1c-2.3,2-4.5,4-6.7,5.9l-2.2,1.9c-1.5,1.3-3,2.6-4.4,3.9l-2.8,2.4c-2,1.8-4,3.5-5.9,5.2
		l-7.5,6.6c-3,2.7-5.8,5.1-8.3,7.3l-2,1.7c-2.2,1.9-4,3.6-5.6,4.9l-2.9,2.5c-1.3,1.1-2,1.7-2,1.7l0,0l0,0c-1.2,1.1-2,2.2-2.6,3.4
		c-0.2,0.4-0.4,0.8-0.5,1.2c-0.5,1.4-0.7,2.9-0.5,4.4c0,0.3,0.1,0.6,0.1,0.9c0.1,0.6,0.3,1.2,0.5,1.8c0.1,0.3,0.2,0.6,0.3,0.9
		c0.5,1.1,1.2,2.2,2,3.1c2.9,3.2,7.6,4.7,12.7,2.4l2.7-1.3c0.5-0.3,1.1-0.6,1.8-0.9l2.8-1.4c1.2-0.6,2.6-1.3,4.1-2l10.8-5.3
		c1.1-0.6,2.3-1.1,3.5-1.7l4.2-2c0.7-0.3,1.4-0.7,2.1-1l4.7-2.3c2.9-1.4,5.9-2.9,9-4.4l5-2.4c0.9-0.5,1.9-0.9,2.8-1.4l65.8-32.1l0,0
		c16.8-7.9,21.5-31,9-44.8c-10.5-11.9-28.7-13.1-40.6-2.6l-4.6,4.1C419.1,134.1,418.6,134.5,418.1,134.9z"/>
	<path class="st4" d="M300.1,201.5C300.1,201.5,300.1,201.5,300.1,201.5c-0.1,0.3-0.1,0.5-0.2,0.8c0,0.2-0.1,0.3-0.1,0.5
		c0,0,0,0,0,0c-0.4,2.4,0.1,4.7,1.2,6.6c0.1,0.2,0.2,0.4,0.3,0.6c0,0,0,0,0,0c0.5,0.9,1.2,1.7,2,2.4c1.5,1.4,3.4,2.2,5.2,2.5
		c0.1,0,0.3,0,0.4,0.1c0.1,0,0.2,0,0.3,0c2.3,0.3,4.6-0.1,6.8-1.4c1-0.6,1.9-1.3,2.6-2.2l0.2-0.2c0.2-0.2,0.6-0.6,1.1-1.2l3.2-3.6
		c0.4-0.4,0.8-0.9,1.2-1.3l0.7-0.8c0.3-0.3,0.6-0.7,0.9-1l4.3-4.9c1.9-2.1,3.9-4.5,6.2-7l5.8-6.6c0.4-0.4,0.8-0.9,1.1-1.3l3.6-4.1
		c0.9-1,1.7-1.9,2.6-2.9l57-64.4l0,0c12.5-13.8,8.1-36.9-8.9-44.9c-14.3-7-31.5-1.1-38.5,13.1l-58.5,119
		C300.5,200.1,300.3,200.8,300.1,201.5z"/>
	<path class="st4" d="M272.3,194.3c0,0.2,0.1,0.5,0.1,0.7c0,0.2,0.1,0.3,0.1,0.5c0,0,0,0,0,0c0.6,2.4,1.9,4.3,3.6,5.6
		c0.2,0.1,0.3,0.3,0.5,0.4c0,0,0,0,0,0c0.8,0.6,1.8,1.1,2.8,1.5c1.9,0.7,3.9,0.7,5.8,0.3c0.1,0,0.3-0.1,0.4-0.1c0.1,0,0.2,0,0.3-0.1
		c2.2-0.6,4.3-1.9,5.8-3.9c0.7-0.9,1.2-1.9,1.6-3c0,0,0.4-1.2,0.4-1.2c0.1-0.3,0.2-0.6,0.3-0.9c0-0.1,0.5-1.6,0.6-1.7
		c0.2-0.5,0.4-1.1,0.6-1.7c0.1-0.2,0.7-2.1,0.8-2.4c0.2-0.7,0.5-1.4,0.8-2.2c0.1-0.4,0.8-2.2,0.9-2.7c0.8-2.2,1.6-4.7,2.6-7.4
		c1.2-3.4,2.6-7.6,4.3-12.5c0.4-1,0.7-2.1,1.1-3.1c0.4-1.2,0.6-1.7,1.1-3.1c0.1-0.3,0.2-0.7,0.3-1c4.7-13.6,5.5-16,10.8-31.3
		c0.1-0.2,0.1-0.4,0.2-0.5c9-26.2,18.4-53.5,18.4-53.5l0,0c6.3-17.5-6.7-37.2-25.4-38.1c-15.9-1-29.5,11-30.5,26.9L272.1,192
		C272.1,192.8,272.1,193.5,272.3,194.3C272.2,194.3,272.2,194.3,272.3,194.3z"/>
	<path class="st4" d="M263,175.8c-0.1-1.4-0.2-2.9-0.3-4.4c-0.4-7-0.9-15.3-1.5-24.1c-2.4-38.4-5.4-87.5-5.4-87.5l0,0
		c-0.9-18.6-20.4-31.8-38-25.4c-15,5.1-23,21.5-17.9,36.5l42.9,125.4c0.2,0.7,0.6,1.4,0.9,2c0,0,0,0,0,0c0.1,0.2,0.3,0.4,0.4,0.6
		c0.1,0.1,0.2,0.3,0.3,0.4c0,0,0,0,0,0c1.5,2,3.4,3.2,5.5,3.8c0.2,0.1,0.4,0.1,0.6,0.2c0,0,0,0,0,0c1,0.2,2.1,0.3,3.1,0.3
		c2-0.1,3.9-0.8,5.5-1.9c0.1-0.1,0.2-0.2,0.3-0.2c0.1-0.1,0.2-0.1,0.2-0.2c1.8-1.4,3.2-3.3,3.8-5.8c0.3-1.1,0.4-2.2,0.3-3.4
		C264,192,263.6,185.7,263,175.8z"/>
	<path class="st4" d="M217.3,211.3c0.5,0.6,1.1,1.1,1.7,1.5c0,0,0,0,0,0c0.2,0.2,0.4,0.3,0.6,0.4c0.1,0.1,0.3,0.2,0.4,0.3
		c0,0,0,0,0,0c2.1,1.3,4.4,1.7,6.6,1.4c0.2,0,0.4-0.1,0.7-0.1c0,0,0,0,0,0c1-0.2,2-0.5,3-1c1.8-0.9,3.3-2.3,4.3-3.9
		c0.1-0.1,0.1-0.2,0.2-0.3c0.1-0.1,0.1-0.2,0.1-0.3c1.1-2,1.7-4.3,1.3-6.9c-0.2-1.1-0.5-2.2-1-3.3c0,0,0-0.1-0.1-0.2l-0.2-0.4
		c-0.3-0.6-0.8-1.7-1.6-3.2l-1-2c-0.7-1.4-1.5-3-2.3-4.8l-2.9-5.9c-1-2-2-4.2-3.1-6.4l-0.2-0.4c-0.5-1.1-1.1-2.3-1.7-3.4l-1.3-2.6
		c-0.4-0.9-0.9-1.8-1.3-2.7l-2.4-4.8c-0.2-0.4-0.4-0.9-0.7-1.3l-6.4-13.1c0,0,0-0.1,0-0.1l-2.7-5.4c0-0.1,0-0.1-0.1-0.2l-30.4-62.3
		l0,0c-8-16.8-31-21.5-44.8-8.9c-11.9,10.5-13.1,28.7-2.6,40.6L217.3,211.3z"/>
	<path class="st4" d="M80.5,176.7l2.4,1.2c0.4,0.2,0.9,0.4,1.4,0.7l0.5,0.2c0.5,0.3,1.1,0.5,1.7,0.8l7.5,3.7
		c0.9,0.4,1.8,0.9,2.7,1.3l1.4,0.7c1.2,0.6,2.5,1.2,3.8,1.9l2.7,1.3c1,0.5,1.9,0.9,2.9,1.4l1.6,0.8c1.3,0.6,2.6,1.3,4,2l0.5,0.2
		c2.3,1.1,4.6,2.2,7,3.4l4.6,2.2c2.5,1.2,5.1,2.5,7.6,3.7l4.4,2.1c3.5,1.7,7.1,3.5,10.6,5.2l11.2,5.5c3.3,1.6,6.4,3.2,9.5,4.7
		l1.7,0.8c1.5,0.7,3,1.5,4.5,2.2l5.1,2.5c0.9,0.4,1.7,0.8,2.5,1.2l2.8,1.4c0.2,0.1,0.4,0.2,0.7,0.3l2.7,1.3c0.3,0.2,0.7,0.3,1,0.5
		l4.6,2.2c0.6,0.3,1.1,0.5,1.6,0.8l0.9,0.4c1.5,0.7,2.5,1.2,3.1,1.5l0.1,0.1c0.2,0.1,0.3,0.1,0.3,0.1l0,0c0.9,0.4,1.8,0.7,2.7,0.9
		c0.2,0,0.4,0.1,0.7,0.1c0.6,0.1,1.2,0.1,1.8,0.1c0,0,0,0,0,0c3.3-0.1,6.2-1.7,8.1-4.1c0.4-0.5,0.7-1,1-1.5c0.3-0.5,0.6-1.1,0.8-1.7
		c0.3-0.9,0.5-1.8,0.6-2.7c0-0.3,0-0.6,0-0.9s0-0.6,0-0.9c-0.1-0.6-0.2-1.3-0.3-1.9c-0.2-0.6-0.4-1.2-0.7-1.9
		c-0.6-1.2-1.5-2.4-2.6-3.5l-0.2-0.2c-0.1-0.1-0.4-0.3-0.7-0.6l-0.4-0.4c-0.4-0.3-0.9-0.8-1.4-1.2l-2-1.8c-0.4-0.4-0.8-0.7-1.3-1.1
		l-2.5-2.2c-0.5-0.4-1-0.8-1.5-1.3l-1.6-1.4c-0.5-0.4-1-0.9-1.5-1.4l-3.3-2.9c-1.4-1.2-2.8-2.5-4.3-3.8l-2-1.8
		c-0.1-0.1-0.2-0.2-0.4-0.3l-4.2-3.7c-1-0.8-1.9-1.7-2.9-2.6l-21.6-19.1c-0.1-0.1-0.2-0.2-0.3-0.3l-47.2-41.7l0,0
		c-13.8-12.5-36.9-8-44.9,8.9C60.3,152.5,66.2,169.7,80.5,176.7z"/>
</g>
</svg>
