<?xml version="1.0" encoding="utf-8"?>
<!-- Generator: Adobe Illustrator 28.0.0, SVG Export Plug-In . SVG Version: 6.00 Build 0)  -->
<svg version="1.1" id="Layer_1" xmlns="http://www.w3.org/2000/svg" xmlns:xlink="http://www.w3.org/1999/xlink" x="0px" y="0px"
	 viewBox="0 0 369.2 369.3" style="enable-background:new 0 0 369.2 369.3;" xml:space="preserve">
<style type="text/css">
	.st0{fill:#0076C0;}
	.st1{fill:#FFFFFF;}
</style>
<path class="st0" d="M184.6,369.3C82.6,369.3,0,286.6,0,184.7S82.6,0,184.6,0s184.6,82.7,184.6,184.6l0,0
	C369.2,286.6,286.6,369.3,184.6,369.3z"/>
<g>
	<path class="st1" d="M249,128.7l6.5,6.5c6.5,10.1,15.9,20.3,24.6,26.7c-2.2-4.3-2.2-8.7-4.3-13C272.1,138.1,259.1,132.3,249,128.7"
		/>
	<path class="st1" d="M117.5,130.2c-8,2.9-16.6,5.8-22.4,13c-4.3,5.8-5.8,13-8.7,20.3l7.2-5.8C104.6,150.4,107.5,138.1,117.5,130.2"
		/>
	<path class="st1" d="M273.5,141c8.7,5.8,8,16.6,11.6,25.3c0.7,3.6,2.9,7.2,3.6,10.9c-5.1-13.7-21-15.2-26.7-28.1l2.2,8
		c4.3,15.2,22.4,18.8,28.9,31.7c-2.2-9.4,1.4-20.3-1.4-29.6C288.7,150.4,282.2,143.2,273.5,141"/>
	<path class="st1" d="M79.2,154c-6.5,10.1-1.4,23.9-2.9,35.4c2.2-5.1,7.2-9.4,11.6-13c9.4-5.8,18.1-15.9,18.1-26.7
		c-5.1,13-21.7,14.5-26,28.1h-0.7c5.8-11.6,2.9-27.4,14.5-36.1C87.2,143.9,82.1,148.2,79.2,154"/>
	<path class="st1" d="M293,156.9c6.5,9.4,2.9,21.7,2.2,32.5c0,5.1,1.4,10.1,0.7,15.2c-0.7-2.2-0.7-4.3-1.4-6.5
		c-2.2-11.6-15.9-17.4-21.7-26.7c0.7,3.6,1.4,6.5,2.9,9.4c5.1,13.7,18.8,22.4,21,37.5c1.4-13.7,10.9-25.3,7.2-40.4
		C301.7,170.7,298.8,162.7,293,156.9"/>
	<path class="st1" d="M74.2,159.1c-5.1,5.8-8,13-10.1,20.3c-3.6,15.2,5.8,27.4,8,41.2c2.9-17.4,21-28.9,22.4-46.9
		c-5.8,10.1-18.8,15.9-21,27.4c0,2.2-0.7,3.6-0.7,5.8L72,206l0.7-8C75.6,184.3,67.7,170.7,74.2,159.1"/>
	<path class="st1" d="M306.8,189.4c2.2,13.7-5.8,23.9-9.4,35.4c-2.2,4.3-0.7,10.1-3.6,14.5c0-2.2,1.4-4.3,1.4-7.2
		c2.2-15.2-10.9-23.9-13.7-36.8c0,3.6,0,6.5,0.7,10.1c0.7,15.9,11.6,28.9,8,45.5c2.9-3.6,5.1-8,8.7-11.6
		C311.1,227,314,206,306.8,189.4"/>
	<path class="st1" d="M61.9,191.6c-4.3,10.1-4.3,23.2-0.7,33.9c2.9,10.9,13,18.1,18.8,27.4c-0.7-3.6-0.7-8.7,0-13
		c3.6-13.7,9.4-27.4,8-43.3c-2.2,10.9-12.3,18.8-13,30.3c-0.7,5.1,0.7,9.4,0.7,13.7c-1.4-2.2-2.2-4.3-2.2-7.2
		C71.3,219.1,59.1,207.5,61.9,191.6"/>
	<path class="st1" d="M282.9,224.9c-8,17.4-2.2,39.7-11.6,56.3l1.4-1.4c18.8-10.1,41.9-27.4,37.5-52.7c0,3.6-1.4,6.5-2.9,9.4
		c-7.2,11.6-20.3,21-26,32.5c0,0.7-0.7,0.7-0.7,0l1.4-1.4C290.9,254.4,282.9,238.5,282.9,224.9"/>
	<path class="st1" d="M85.7,226.3c0.7,5.8-0.7,10.1-1.4,15.2c-2.9,9.4-1.4,21,4.3,28.9c-2.2-0.7-2.9-2.9-4.3-5.1
		c-7.2-13-24.6-21-26-36.8c0,5.8,0,11.6,1.4,17.4c5.1,18.1,24.6,27.4,38.3,36.1C88.6,265.3,93.7,243.6,85.7,226.3"/>
	<path class="st1" d="M275,250.1l-7.2,9.4c-9.4,13-8.7,31-21.7,41.9c6.5-2.2,14.5-2.9,21-4.3c15.9-4.3,32.5-19.5,34.6-36.1
		c-2.9,6.5-8.7,11.6-15.2,15.9c-10.1,5.1-21,10.1-29.6,18.1h-0.7l1.4-1.4C272.8,284,268.4,264.6,275,250.1"/>
	<path class="st1" d="M93.7,251.5l2.2,6.5c2.2,13.7,3.6,28.9,15.9,38.3l0,0c-4.3-1.4-7.2-5.1-10.9-7.2c-11.6-8-28.1-10.9-34.6-26
		c2.2,10.9,9.4,20.3,18.1,27.4c10.9,9.4,25.3,8.7,38.3,12.3c-5.1-3.6-7.2-8-9.4-13C108.9,275.4,104.6,261.7,93.7,251.5"/>
	<path class="st1" d="M257,276.9c-9.4,6.5-18.1,17.4-26.7,23.9c-5.1,3.6-10.9,5.1-16.6,6.5c12.3,0.7,23.2,7.2,36.1,5.8
		c13.7-0.7,26.7-8.7,33.9-21c-9.4,11.6-25.3,10.9-39.7,12.3c-5.1,0.7-9.4,2.2-14.5,2.2c0,0,0-0.7,0.7-0.7
		C246.1,304.3,251.2,287.6,257,276.9"/>
	<path class="st1" d="M111.7,278.3c6.5,7.2,6.5,17.4,15.9,23.9c3.6,2.9,8,3.6,11.6,5.1c-4.3,0.7-8-1.4-12.3-1.4
		c-14.5-1.4-31,0-41.2-11.6c5.1,8.7,13,15.9,22.4,18.8c16.6,6.5,31.7-2.9,47.7-4.3C137,307.2,126.9,286.9,111.7,278.3"/>
	<path class="st1" d="M232.4,317.3c-14.5-6.5-31-13.7-47.7-8c-8.7-2.9-19.5-2.9-28.1,0c-14.5,6.5-34.6,16.6-50.6,5.8
		c2.9,3.6,5.8,5.1,9.4,8c10.1,6.5,24.6,5.8,34.6,0.7c9.4-4.3,16.6-15.9,28.9-12.3c-10.1,5.1-19.5,11.6-28.1,20.3l5.1,4.3
		c7.2-10.1,17.4-18.1,28.9-23.2c10.9,5.1,20.3,13.7,28.1,22.4l5.1-4.3c-8.7-8-18.1-14.5-28.1-19.5c2.9-0.7,5.8-0.7,8.7,0
		c10.9,5.1,19.5,14.5,31.7,15.9c13,2.2,24.6-2.9,32.5-13l-6.5,3.6C249.7,320.9,240.3,319.5,232.4,317.3"/>
	<path class="st1" d="M188.3,35.6c-0.7,21.7,8,39.7,16.6,57.8c17.4,31.7,44,59.2,53.5,93.9c7.2,30.3,1.4,63.6-19.5,86.6
		c-15.2,15.9-35.4,22.4-57.1,25.3l-0.7-0.7c11.6-10.1,13.7-26.7,9.4-41.2c-5.1-17.4-19.5-31-26-47.7c-8.7-16.6-14.5-34.6-12.3-54.9
		c1.4-13,2.9-26,6.5-38.3h0.7c-8,36.1,16.6,63.6,39.7,88.8c10.1,12.3,18.1,26,21,41.9c1.4-5.8,0-11.6-1.4-17.4
		c-8.7-28.1-24.6-54.2-33.9-82.3c-5.8-18.1-8.7-37.5-9.4-57.8c0,0,0.7-0.7,0.7,0c0.7,28.9,18.8,50.6,33.9,73
		c15.9,20.3,29.6,40.4,31.7,66.5l0,0c3.6-18.8-0.7-38.3-8-54.2l-20.9-43.4c-10.9-31-26-61.4-25.3-98.2
		C188.3,32.7,188.3,34.8,188.3,35.6"/>
	<path class="st1" d="M119.7,167.1c-5.8,13-5.8,29.6-2.2,43.3c4.3,18.8,23.2,35.4,41.2,41.2c-18.1-21-23.2-49.8-18.1-77.2h0.7
		c-1.4,12.3,0.7,25.3,5.1,36.1c5.1,15.2,15.2,28.1,27.4,39.7c8,10.1,13.7,23.9,7.2,36.1c-2.9,4.3-5.8,8-10.1,11.6h-0.7
		c1.4-5.1-2.9-8-6.5-10.9c-21-11.6-46.2-26.7-53.5-49.8s0-46.9,8-67.9h1.4L119.7,167.1"/>
</g>
</svg>
